{"title":"Game of Thrones Season 2 S02 Complete 1080p x265 HEVC ACC JoyBel","uid":11685033,"size":5182473235,"categoryP":"video","categoryS":"hd___tv_shows","magnet":"?xt=urn:btih:7f3122d5de49535a0b154a876b4689029a2927be&amp;dn=Game+of+Thrones+Season+2+S02+Complete+1080p+x265+HEVC+ACC+JoyBel&amp;tr=udp%3A%2F%2Ftracker.openbittorrent.com%3A80&amp;tr=udp%3A%2F%2Fopen.demonii.com%3A1337&amp;tr=udp%3A%2F%2Ftracker.coppersurfer.tk%3A6969&amp;tr=udp%3A%2F%2Fexodus.desync.com%3A6969","seeders":16,"leechers":7,"uploader":"garumon","files":14,"time":1423283964,"description":"Game of Thrones Season 2, in 1080p in x265 aka HEVC and AAC 5.1 audio all for about 470mb each!\nEncoded using 2 pass, from the blu-ray, with the slow setting for the highest quality possible.\n\nimage\n\nAny questions, or help playing this file, click on the HEVC banner just above. \nPlease watch before rating or commenting on quality. Thank you KickAss community!\n\n\nimageimageimageimage\n\n\n\nEncoding info:\n show spoiler\n\n\nFormat : MPEG-4\nFormat profile : Base Media / Version 2\nCodec ID : mp42\nFile size : 535 MiB\nDuration : 1h 3mn\nOverall bit rate mode : Variable\nOverall bit rate : 1 180 Kbps\nWriting application : HandBrake 0.10.0 2014112200\n\nVideo\nID : 1\nFormat : HEVC\nFormat/Info : High Efficiency Video Coding\nFormat profile : &lt;a class=&quot;__cf_email__&quot; href=&quot;/cdn-cgi/l/email-protection&quot; data-cfemail=&quot;abe6cac2c5ebe79f859b&quot;&gt;[email&amp;#160;protected]&lt;/a&gt;&lt;script cf-hash='f9e31' type=&quot;text/javascript&quot;&gt;\n/* &lt;![CDATA[ */!function(){try{var t=&quot;currentScript&quot;in document?document.currentScript:function(){for(var t=document.getElementsByTagName(&quot;script&quot;),e=t.length;e--;)if(t[e].getAttribute(&quot;cf-hash&quot;))return t[e]}();if(t&amp;&amp;t.previousSibling){var e,r,n,i,c=t.previousSibling,a=c.getAttribute(&quot;data-cfemail&quot;);if(a){for(e=&quot;&quot;,r=parseInt(a.substr(0,2),16),n=2;a.length-n;n+=2)i=parseInt(a.substr(n,2),16)^r,e+=String.fromCharCode(i);e=document.createTextNode(e),c.parentNode.replaceChild(e,c)}}}catch(u){}}();/* ]]&gt; */&lt;/script&gt;\nCodec ID : hev1\nCodec ID/Info : High Efficiency Video Coding\nDuration : 1h 3mn\nBit rate : 903 Kbps\nWidth : 1 920 pixels\nHeight : 1 080 pixels\nDisplay aspect ratio : 16:9\nFrame rate mode : Variable\nFrame rate : 23.976 fps\nMinimum frame rate : 23.974 fps\nMaximum frame rate : 23.981 fps\nColor space : YUV\nChroma subsampling : 4:2:0\nBit depth : 8 bits\nBits/(Pixel*Frame) : 0.018\nStream size : 410 MiB (77%)\nWriting library : x265 1.4:[Windows][GCC 4.9.0][64 bit]\nEncoding settings : wpp / ctu=64 / tu-intra-depth=1 / tu-inter-depth=1 / me=1 / subme=2 / merange=57 / no-rect / no-amp / max-merge=2 / temporal-mvp / no-early-skip / no-fast-cbf / rdpenalty=0 / no-tskip / no-tskip-fast / strong-intra-smoothing / no-lossless / no-cu-lossless / no-constrained-intra / no-fast-intra / open-gop / interlace=0 / keyint=240 / min-keyint=24 / scenecut=40 / rc-lookahead=20 / bframes=4 / bframe-bias=0 / b-adapt=2 / ref=3 / weightp / no-weightb / aq-mode=2 / aq-strength=1.00 / cbqpoffs=0 / crqpoffs=0 / rd=3 / psy-rd=0.00 / psy-rdoq=0.00 / signhide / lft / sao / no-sao-non-deblock / b-pyramid / cutree / rc=2 / pass / bitrate=900 / ratetol=1.0 / qcomp=0.60 / qpmin=0 / qpmax=51 / qpstep=4 / cplxblur=20.0 / qblur=0.5 / ipratio=1.40 / pbratio=1.30\nColor primaries : BT.709\nTransfer characteristics : BT.709\nMatrix coefficients : BT.709\nColor range : Limited\n\nAudio\nID : 2\nFormat : AAC\nFormat/Info : Advanced Audio Codec\nFormat profile : HE-AAC / LC\nCodec ID : 40\nDuration : 1h 3mn\nBit rate mode : Variable\nBit rate : 192 Kbps\nChannel(s) : 2 channels\nChannel(s)_Original : 6 channels\nChannel positions : Front: L C R, Side: L R, LFE\nSampling rate : 48.0 KHz / 24.0 KHz\nCompression mode : Lossy\nStream size : 87.1 MiB (16%)\nTitle : Surround / Surround\n\nText #1\nID : 3\nFormat : mp4s\nCodec ID : E0\nDuration : 57mn 53s\nBit rate mode : Variable\nBit rate : 295 bps\nStream size : 125 KiB (0%)\nLanguage : English\n\nText #2\nID : 4\nFormat : mp4s\nCodec ID : E0\nDuration : 1h 2mn\nBit rate mode : Variable\nBit rate : 8 136 bps\nStream size : 3.61 MiB (1%)\nLanguage : English\n\nText #3\nID : 5\nFormat : mp4s\nCodec ID : E0\nDuration : 59mn 53s\nBit rate mode : Variable\nBit rate : 7 678 bps\nStream size : 3.29 MiB (1%)\nLanguage : Danish\n\nText #4\nID : 6\nFormat : mp4s\nCodec ID : E0\nDuration : 59mn 53s\nBit rate mode : Variable\nBit rate : 8 089 bps\nStream size : 3.47 MiB (1%)\nLanguage : Dutch\n\nText #5\nID : 7\nFormat : mp4s\nCodec ID : E0\nDuration : 59mn 53s\nBit rate mode : Variable\nBit rate : 7 560 bps\nStream size : 3.24 MiB (1%)\nLanguage : Finnish\n\nText #6\nID : 8\nFormat : mp4s\nCodec ID : E0\nDuration : 59mn 53s\nBit rate mode : Variable\nBit rate : 7 999 bps\nStream size : 3.43 MiB (1%)\nLanguage : French\n\nText #7\nID : 9\nFormat : mp4s\nCodec ID : E0\nDuration : 59mn 53s\nBit rate mode : Variable\nBit rate : 7 357 bps\nStream size : 3.15 MiB (1%)\nLanguage : Norwegian\n\nText #8\nID : 10\nFormat : mp4s\nCodec ID : E0\nDuration : 59mn 53s\nBit rate mode : Variable\nBit rate : 6 387 bps\nStream size : 2.74 MiB (1%)\nLanguage : Polish\n\nText #9\nID : 11\nFormat : mp4s\nCodec ID : E0\nDuration : 59mn 53s\nBit rate mode : Variable\nBit rate : 7 539 bps\nStream size : 3.23 MiB (1%)\nLanguage : Portuguese\n\nText #10\nID : 12\nFormat : mp4s\nCodec ID : E0\nDuration : 59mn 53s\nBit rate mode : Variable\nBit rate : 7 818 bps\nStream size : 3.35 MiB (1%)\nLanguage : Spanish\n\nText #11\nID : 13\nFormat : mp4s\nCodec ID : E0\nDuration : 59mn 53s\nBit rate mode : Variable\nBit rate : 7 528 bps\nStream size : 3.22 MiB (1%)\nLanguage : Spanish\n\nText #12\nID : 14\nFormat : mp4s\nCodec ID : E0\nDuration : 59mn 53s\nBit rate mode : Variable\nBit rate : 7 469 bps\nStream size : 3.20 MiB (1%)\nLanguage : Swedish","torrent":{"xt":"urn:btih:7f3122d5de49535a0b154a876b4689029a2927be","amp;dn":"Game+of+Thrones+Season+2+S02+Complete+1080p+x265+HEVC+ACC+JoyBel","amp;tr":["udp%3A%2F%2Ftracker.openbittorrent.com%3A80","udp%3A%2F%2Fopen.demonii.com%3A1337","udp%3A%2F%2Ftracker.coppersurfer.tk%3A6969","udp%3A%2F%2Fexodus.desync.com%3A6969"],"infoHash":"7f3122d5de49535a0b154a876b4689029a2927be","infoHashBuffer":{"type":"Buffer","data":[127,49,34,213,222,73,83,90,11,21,74,135,107,70,137,2,154,41,39,190]},"announce":[],"urlList":[]}}